<?xml version="1.0" encoding="utf-8"?>
<!-- Generator: Adobe Illustrator 25.0.1, SVG Export Plug-In . SVG Version: 6.00 Build 0)  -->
<svg version="1.1" id="Слой_1" xmlns="http://www.w3.org/2000/svg" xmlns:xlink="http://www.w3.org/1999/xlink" x="0px" y="0px"
	 viewBox="0 0 448 448" style="enable-background:new 0 0 448 448;" xml:space="preserve">
<g>
	<ellipse transform="matrix(0.7071 -0.7071 0.7071 0.7071 -105.628 224.4915)" cx="218.2" cy="239.8" rx="74.7" ry="74.7"/>
	<path d="M416.5,31.5C385,0,334.3,0,233,0H215C113.7,0,63,0,31.5,31.5C0,63,0,113.7,0,215V233C0,334.3,0,385,31.5,416.5
		C63,448,113.7,448,215,448H233c101.4,0,152.1,0,183.5-31.5C448,385,448,334.3,448,233V215C448,113.7,448,63,416.5,31.5z
		 M218.2,354.7c-63.6,0-114.9-51.3-114.9-114.9s51.3-114.9,114.9-114.9s114.9,51.3,114.9,114.9S281.8,354.7,218.2,354.7z
		 M364.6,103.3c-14.9,0-26.8-12-26.8-26.8s12-26.8,26.8-26.8s26.8,12,26.8,26.8C391.4,91.4,379.4,103.3,364.6,103.3z"/>
</g>
</svg>
