<?xml version="1.0" encoding="utf-8"?>
<!-- Generator: Adobe Illustrator 25.0.1, SVG Export Plug-In . SVG Version: 6.00 Build 0)  -->
<svg version="1.1" id="Слой_1" xmlns="http://www.w3.org/2000/svg" xmlns:xlink="http://www.w3.org/1999/xlink" x="0px" y="0px"
	 viewBox="0 0 158.2 158.2" style="enable-background:new 0 0 158.2 158.2;" xml:space="preserve">
<style type="text/css">
	.st0{fill:url(#SVGID_1_);}
	.st1{clip-path:url(#SVGID_3_);fill:url(#SVGID_4_);}
	.st2{clip-path:url(#SVGID_3_);fill:url(#SVGID_5_);}
	.st3{clip-path:url(#SVGID_3_);fill:url(#SVGID_6_);}
	.st4{opacity:0.5;clip-path:url(#SVGID_3_);fill:url(#SVGID_7_);}
	.st5{fill:#FFFFFF;}
</style>
<linearGradient id="SVGID_1_" gradientUnits="userSpaceOnUse" x1="4.3505" y1="145.8759" x2="158.2399" y2="145.8759">
	<stop  offset="1.871892e-03" style="stop-color:#E30FFC"/>
	<stop  offset="0.2768" style="stop-color:#BC17E4;stop-opacity:0.7243"/>
	<stop  offset="0.5908" style="stop-color:#951FCD;stop-opacity:0.4094"/>
	<stop  offset="0.8427" style="stop-color:#7E23BE;stop-opacity:0.1568"/>
	<stop  offset="0.999" style="stop-color:#7525B9;stop-opacity:0"/>
</linearGradient>
<ellipse class="st0" cx="81.3" cy="145.9" rx="76.9" ry="2.2"/>
<g>
	<defs>
		<circle id="SVGID_2_" cx="81.3" cy="81.1" r="65.6"/>
	</defs>
	<clipPath id="SVGID_3_">
		<use xlink:href="#SVGID_2_"  style="overflow:visible;"/>
	</clipPath>
	<linearGradient id="SVGID_4_" gradientUnits="userSpaceOnUse" x1="15.7379" y1="81.1088" x2="146.8525" y2="81.1088">
		<stop  offset="1.871891e-03" style="stop-color:#E6BC22"/>
		<stop  offset="0.1846" style="stop-color:#E5B826"/>
		<stop  offset="0.3465" style="stop-color:#E1AE30"/>
		<stop  offset="0.5006" style="stop-color:#DA9C42"/>
		<stop  offset="0.6498" style="stop-color:#D0825C"/>
		<stop  offset="0.7956" style="stop-color:#C4617D"/>
		<stop  offset="0.9368" style="stop-color:#B539A5"/>
		<stop  offset="1" style="stop-color:#AD25B9"/>
	</linearGradient>
	<circle class="st1" cx="81.3" cy="81.1" r="65.6"/>
	<linearGradient id="SVGID_5_" gradientUnits="userSpaceOnUse" x1="19.6114" y1="82.9734" x2="145.5163" y2="82.9734">
		<stop  offset="6.589556e-03" style="stop-color:#E92BFF"/>
		<stop  offset="1" style="stop-color:#4646FF"/>
	</linearGradient>
	<path class="st2" d="M66.8,145.3l-0.4-0.7c3.4-2.1,30.3-19.3,42.7-47.9c-17.5-7.5-26.9-3.9-42.4,2.2c-3.2,1.2-6.5,2.5-10.3,3.9
		c-22.6,8.1-34.1,7.2-34.2,7.2l0.1-0.8c0.1,0,11.4,0.9,33.9-7.2c3.8-1.3,7.1-2.6,10.3-3.9c15.7-6.1,25.2-9.8,43-2.1
		c1.5-3.6,2.8-7.3,3.8-11.3c0.7-2.8,1.2-5.5,1.7-8.3c-2-1-4.2-2.1-6.4-3.1c-20.6-9.6-52.8-19.8-88.7-14.4l-0.1-0.8
		c36.2-5.5,68.5,4.8,89.2,14.4c2.1,1,4.2,2,6.1,3c0.9-6.5,1.2-12.8,1-18.6C104.1,50,91.1,38.4,83,31.1c-1.1-1-2.2-2-3.1-2.8
		c-10.6-9.3-25.4-6.6-25.6-6.6L54.1,21c0.2,0,15.4-2.8,26.2,6.7c1,0.8,2,1.8,3.2,2.8c8,7.1,20.8,18.5,32.4,25.6
		c-0.7-19.1-5.7-33.4-5.8-33.6l0.7-0.3c0.1,0.2,5.2,14.9,5.8,34.4c5,2.9,9.7,5.1,13.7,5.7c4.3,0.7,7.4,0.2,9.4-1.5
		c2-1.8,1.9-4.2,1.9-4.2l0.8,0c0,0.1,0.1,2.8-2.2,4.8c-2.1,1.9-5.5,2.4-10,1.7c-4-0.6-8.7-2.7-13.6-5.6c0.1,5.9-0.1,12.1-1.1,18.6
		c18.4,9.5,29.7,19,29.9,19.1l-0.5,0.6c-0.1-0.1-11.3-9.5-29.5-18.9c-0.4,2.7-1,5.4-1.6,8.1c-1,4-2.3,7.8-3.8,11.4
		c21,9.5,13.6,34.9,13.5,35.2l-0.7-0.2c0.1-0.3,7.3-25-13.1-34.3C97.3,125.9,70.2,143.2,66.8,145.3z"/>
	<radialGradient id="SVGID_6_" cx="71.0732" cy="61.4991" r="105.7551" gradientUnits="userSpaceOnUse">
		<stop  offset="0.5727" style="stop-color:#E92BFF;stop-opacity:0"/>
		<stop  offset="0.9987" style="stop-color:#E623FE"/>
	</radialGradient>
	<circle class="st3" cx="81.3" cy="81.1" r="65.6"/>
	<radialGradient id="SVGID_7_" cx="63.4946" cy="55.7091" r="82.0546" gradientUnits="userSpaceOnUse">
		<stop  offset="1.240028e-02" style="stop-color:#FFF706"/>
		<stop  offset="0.1102" style="stop-color:#FBED0F;stop-opacity:0.901"/>
		<stop  offset="0.2783" style="stop-color:#F0D126;stop-opacity:0.7308"/>
		<stop  offset="0.4964" style="stop-color:#DFA44D;stop-opacity:0.5099"/>
		<stop  offset="0.753" style="stop-color:#C76781;stop-opacity:0.2501"/>
		<stop  offset="1" style="stop-color:#AD25B9;stop-opacity:0"/>
	</radialGradient>
	<circle class="st4" cx="81.3" cy="81.1" r="65.6"/>
</g>
<circle class="st5" cx="51.6" cy="47" r="2.9"/>
<circle class="st5" cx="44.5" cy="49.9" r="1.1"/>
</svg>
