<?xml version="1.0" encoding="utf-8"?>
<!-- Generator: Adobe Illustrator 25.0.1, SVG Export Plug-In . SVG Version: 6.00 Build 0)  -->
<svg version="1.1" id="Слой_1" xmlns="http://www.w3.org/2000/svg" xmlns:xlink="http://www.w3.org/1999/xlink" x="0px" y="0px"
	 viewBox="0 0 274.7 166.5" style="enable-background:new 0 0 274.7 166.5;" xml:space="preserve">
<style type="text/css">
	.st0{fill:url(#SVGID_1_);}
	.st1{fill:url(#SVGID_2_);}
	.st2{fill:#FFFFFF;}
	.st3{fill:url(#SVGID_3_);}
	.st4{fill:url(#SVGID_4_);}
	.st5{fill:url(#SVGID_5_);}
	.st6{fill:url(#SVGID_6_);}
	.st7{fill:url(#SVGID_7_);}
	.st8{fill:url(#SVGID_8_);}
	.st9{fill:url(#SVGID_9_);}
	.st10{fill:url(#SVGID_10_);}
	.st11{fill:url(#SVGID_11_);}
	.st12{fill:url(#SVGID_12_);}
	.st13{fill:url(#SVGID_13_);}
	.st14{fill:url(#SVGID_14_);}
	.st15{fill:url(#SVGID_15_);}
	.st16{fill:url(#SVGID_16_);}
</style>
<linearGradient id="SVGID_1_" gradientUnits="userSpaceOnUse" x1="170.7124" y1="164.6662" x2="274.7397" y2="164.6662">
	<stop  offset="1.871892e-03" style="stop-color:#00FFC4"/>
	<stop  offset="8.776891e-02" style="stop-color:#0EE6C3;stop-opacity:0.9139"/>
	<stop  offset="0.3351" style="stop-color:#32A2BF;stop-opacity:0.6658"/>
	<stop  offset="0.5588" style="stop-color:#4F6CBD;stop-opacity:0.4415"/>
	<stop  offset="0.7509" style="stop-color:#6445BB;stop-opacity:0.2488"/>
	<stop  offset="0.904" style="stop-color:#702EB9;stop-opacity:9.527326e-02"/>
	<stop  offset="0.999" style="stop-color:#7525B9;stop-opacity:0"/>
</linearGradient>
<ellipse class="st0" cx="222.7" cy="164.7" rx="52" ry="1.8"/>
<linearGradient id="SVGID_2_" gradientUnits="userSpaceOnUse" x1="0" y1="164.6662" x2="104.0273" y2="164.6662">
	<stop  offset="1.871892e-03" style="stop-color:#00FFC4"/>
	<stop  offset="8.776891e-02" style="stop-color:#0EE6C3;stop-opacity:0.9139"/>
	<stop  offset="0.3351" style="stop-color:#32A2BF;stop-opacity:0.6658"/>
	<stop  offset="0.5588" style="stop-color:#4F6CBD;stop-opacity:0.4415"/>
	<stop  offset="0.7509" style="stop-color:#6445BB;stop-opacity:0.2488"/>
	<stop  offset="0.904" style="stop-color:#702EB9;stop-opacity:9.527326e-02"/>
	<stop  offset="0.999" style="stop-color:#7525B9;stop-opacity:0"/>
</linearGradient>
<ellipse class="st1" cx="52" cy="164.7" rx="52" ry="1.8"/>
<path class="st2" d="M222.8,119.5c-0.5,0-0.8-0.4-0.8-0.8V76.9c0-0.5,0.4-0.8,0.8-0.8s0.8,0.4,0.8,0.8v41.8
	C223.6,119.1,223.3,119.5,222.8,119.5z"/>
<path class="st2" d="M222.8,119.5c-0.3,0-0.6-0.1-0.7-0.4l-20.9-36.2c-0.2-0.4-0.1-0.9,0.3-1.1c0.4-0.2,0.9-0.1,1.1,0.3l20.9,36.2
	c0.2,0.4,0.1,0.9-0.3,1.1C223.1,119.5,222.9,119.5,222.8,119.5z"/>
<path class="st2" d="M222.8,119.5c-0.1,0-0.3,0-0.4-0.1l-36.2-20.9c-0.4-0.2-0.5-0.7-0.3-1.1c0.2-0.4,0.7-0.5,1.1-0.3l36.2,20.9
	c0.4,0.2,0.5,0.7,0.3,1.1C223.4,119.4,223.1,119.5,222.8,119.5z"/>
<path class="st2" d="M222.8,119.5H181c-0.5,0-0.8-0.4-0.8-0.8s0.4-0.8,0.8-0.8h41.8c0.5,0,0.8,0.4,0.8,0.8S223.3,119.5,222.8,119.5z
	"/>
<path class="st2" d="M186.6,140.4c-0.3,0-0.6-0.1-0.7-0.4c-0.2-0.4-0.1-0.9,0.3-1.1l36.2-20.9c0.4-0.2,0.9-0.1,1.1,0.3
	c0.2,0.4,0.1,0.9-0.3,1.1L187,140.3C186.9,140.4,186.8,140.4,186.6,140.4z"/>
<path class="st2" d="M201.9,155.7c-0.1,0-0.3,0-0.4-0.1c-0.4-0.2-0.5-0.7-0.3-1.1l20.9-36.2c0.2-0.4,0.7-0.5,1.1-0.3
	c0.4,0.2,0.5,0.7,0.3,1.1l-20.9,36.2C202.5,155.5,202.2,155.7,201.9,155.7z"/>
<path class="st2" d="M222.8,161.3c-0.5,0-0.8-0.4-0.8-0.8v-41.8c0-0.5,0.4-0.8,0.8-0.8s0.8,0.4,0.8,0.8v41.8
	C223.6,160.9,223.3,161.3,222.8,161.3z"/>
<path class="st2" d="M243.7,155.7c-0.3,0-0.6-0.1-0.7-0.4l-20.9-36.2c-0.2-0.4-0.1-0.9,0.3-1.1c0.4-0.2,0.9-0.1,1.1,0.3l20.9,36.2
	c0.2,0.4,0.1,0.9-0.3,1.1C244,155.6,243.8,155.7,243.7,155.7z"/>
<path class="st2" d="M259,140.4c-0.1,0-0.3,0-0.4-0.1l-36.2-20.9c-0.4-0.2-0.5-0.7-0.3-1.1c0.2-0.4,0.7-0.5,1.1-0.3l36.2,20.9
	c0.4,0.2,0.5,0.7,0.3,1.1C259.5,140.2,259.3,140.4,259,140.4z"/>
<path class="st2" d="M264.6,119.5h-41.8c-0.5,0-0.8-0.4-0.8-0.8s0.4-0.8,0.8-0.8h41.8c0.5,0,0.8,0.4,0.8,0.8S265,119.5,264.6,119.5z
	"/>
<path class="st2" d="M222.8,119.5c-0.3,0-0.6-0.1-0.7-0.4c-0.2-0.4-0.1-0.9,0.3-1.1l36.2-20.9c0.4-0.2,0.9-0.1,1.1,0.3
	c0.2,0.4,0.1,0.9-0.3,1.1l-36.2,20.9C223.1,119.5,222.9,119.5,222.8,119.5z"/>
<path class="st2" d="M222.8,119.5c-0.1,0-0.3,0-0.4-0.1c-0.4-0.2-0.5-0.7-0.3-1.1L243,82.1c0.2-0.4,0.7-0.5,1.1-0.3
	c0.4,0.2,0.5,0.7,0.3,1.1l-20.9,36.2C223.4,119.4,223.1,119.5,222.8,119.5z"/>
<linearGradient id="SVGID_3_" gradientUnits="userSpaceOnUse" x1="210.5706" y1="114.5803" x2="228.122" y2="120.4685">
	<stop  offset="6.589556e-03" style="stop-color:#E92BFF"/>
	<stop  offset="1" style="stop-color:#4646FF"/>
</linearGradient>
<circle class="st3" cx="222.8" cy="118.7" r="11.4"/>
<path class="st2" d="M52,119.5c-0.5,0-0.8-0.4-0.8-0.8V76.9c0-0.5,0.4-0.8,0.8-0.8s0.8,0.4,0.8,0.8v41.8
	C52.8,119.1,52.5,119.5,52,119.5z"/>
<path class="st2" d="M52,119.5c-0.3,0-0.6-0.1-0.7-0.4L30.4,82.9c-0.2-0.4-0.1-0.9,0.3-1.1c0.4-0.2,0.9-0.1,1.1,0.3l20.9,36.2
	c0.2,0.4,0.1,0.9-0.3,1.1C52.3,119.5,52.2,119.5,52,119.5z"/>
<path class="st2" d="M52,119.5c-0.1,0-0.3,0-0.4-0.1L15.4,98.5c-0.4-0.2-0.5-0.7-0.3-1.1c0.2-0.4,0.7-0.5,1.1-0.3L52.4,118
	c0.4,0.2,0.5,0.7,0.3,1.1C52.6,119.4,52.3,119.5,52,119.5z"/>
<path class="st2" d="M52,119.5H10.2c-0.5,0-0.8-0.4-0.8-0.8s0.4-0.8,0.8-0.8H52c0.5,0,0.8,0.4,0.8,0.8S52.5,119.5,52,119.5z"/>
<path class="st2" d="M15.8,140.4c-0.3,0-0.6-0.1-0.7-0.4c-0.2-0.4-0.1-0.9,0.3-1.1L51.6,118c0.4-0.2,0.9-0.1,1.1,0.3
	c0.2,0.4,0.1,0.9-0.3,1.1l-36.2,20.9C16.1,140.4,16,140.4,15.8,140.4z"/>
<path class="st2" d="M31.1,155.7c-0.1,0-0.3,0-0.4-0.1c-0.4-0.2-0.5-0.7-0.3-1.1l20.9-36.2c0.2-0.4,0.7-0.5,1.1-0.3
	c0.4,0.2,0.5,0.7,0.3,1.1l-20.9,36.2C31.7,155.5,31.4,155.7,31.1,155.7z"/>
<path class="st2" d="M52,161.3c-0.5,0-0.8-0.4-0.8-0.8v-41.8c0-0.5,0.4-0.8,0.8-0.8s0.8,0.4,0.8,0.8v41.8
	C52.8,160.9,52.5,161.3,52,161.3z"/>
<path class="st2" d="M72.9,155.7c-0.3,0-0.6-0.1-0.7-0.4l-20.9-36.2c-0.2-0.4-0.1-0.9,0.3-1.1c0.4-0.2,0.9-0.1,1.1,0.3l20.9,36.2
	c0.2,0.4,0.1,0.9-0.3,1.1C73.2,155.6,73,155.7,72.9,155.7z"/>
<path class="st2" d="M88.2,140.4c-0.1,0-0.3,0-0.4-0.1l-36.2-20.9c-0.4-0.2-0.5-0.7-0.3-1.1c0.2-0.4,0.7-0.5,1.1-0.3l36.2,20.9
	c0.4,0.2,0.5,0.7,0.3,1.1C88.7,140.2,88.5,140.4,88.2,140.4z"/>
<path class="st2" d="M93.8,119.5H52c-0.5,0-0.8-0.4-0.8-0.8s0.4-0.8,0.8-0.8h41.8c0.5,0,0.8,0.4,0.8,0.8S94.2,119.5,93.8,119.5z"/>
<path class="st2" d="M52,119.5c-0.3,0-0.6-0.1-0.7-0.4c-0.2-0.4-0.1-0.9,0.3-1.1l36.2-20.9c0.4-0.2,0.9-0.1,1.1,0.3
	c0.2,0.4,0.1,0.9-0.3,1.1l-36.2,20.9C52.3,119.5,52.2,119.5,52,119.5z"/>
<path class="st2" d="M52,119.5c-0.1,0-0.3,0-0.4-0.1c-0.4-0.2-0.5-0.7-0.3-1.1l20.9-36.2c0.2-0.4,0.7-0.5,1.1-0.3
	c0.4,0.2,0.5,0.7,0.3,1.1l-20.9,36.2C52.6,119.4,52.3,119.5,52,119.5z"/>
<radialGradient id="SVGID_4_" cx="224.8165" cy="120.6267" r="12.9377" gradientUnits="userSpaceOnUse">
	<stop  offset="7.423373e-02" style="stop-color:#FFFFFF"/>
	<stop  offset="0.1602" style="stop-color:#F7F3FB"/>
	<stop  offset="0.3159" style="stop-color:#E3D3F1"/>
	<stop  offset="0.5234" style="stop-color:#C29FE0"/>
	<stop  offset="0.7721" style="stop-color:#9658CA"/>
	<stop  offset="0.9387" style="stop-color:#7525B9"/>
</radialGradient>
<circle class="st4" cx="222.8" cy="118.7" r="6.8"/>
<linearGradient id="SVGID_5_" gradientUnits="userSpaceOnUse" x1="4.2355" y1="118.9128" x2="96.9961" y2="118.9128">
	<stop  offset="6.589556e-03" style="stop-color:#E92BFF"/>
	<stop  offset="1" style="stop-color:#4646FF"/>
</linearGradient>
<path class="st5" d="M50.6,72.5C25,72.5,4.2,93.3,4.2,118.9c0,25.6,20.8,46.4,46.4,46.4S97,144.5,97,118.9
	C97,93.3,76.2,72.5,50.6,72.5z M50.6,156.2c-20.6,0-37.3-16.7-37.3-37.3S30,81.6,50.6,81.6c20.6,0,37.3,16.7,37.3,37.3
	S71.2,156.2,50.6,156.2z"/>
<linearGradient id="SVGID_6_" gradientUnits="userSpaceOnUse" x1="176.3457" y1="118.9128" x2="269.1064" y2="118.9128">
	<stop  offset="6.589556e-03" style="stop-color:#E92BFF"/>
	<stop  offset="1" style="stop-color:#4646FF"/>
</linearGradient>
<path class="st6" d="M176.3,118.9c0,25.6,20.8,46.4,46.4,46.4s46.4-20.8,46.4-46.4c0-25.6-20.8-46.4-46.4-46.4
	S176.3,93.3,176.3,118.9z M185.4,118.9c0-20.6,16.7-37.3,37.3-37.3c20.6,0,37.3,16.7,37.3,37.3s-16.7,37.3-37.3,37.3
	C202.1,156.2,185.4,139.5,185.4,118.9z"/>
<linearGradient id="SVGID_7_" gradientUnits="userSpaceOnUse" x1="39.7849" y1="114.5803" x2="57.3363" y2="120.4685">
	<stop  offset="6.589556e-03" style="stop-color:#E92BFF"/>
	<stop  offset="1" style="stop-color:#4646FF"/>
</linearGradient>
<circle class="st7" cx="52" cy="118.7" r="11.4"/>
<radialGradient id="SVGID_8_" cx="53.619" cy="119.9372" r="11.7466" gradientUnits="userSpaceOnUse">
	<stop  offset="7.423373e-02" style="stop-color:#FFFFFF"/>
	<stop  offset="0.1602" style="stop-color:#F7F3FB"/>
	<stop  offset="0.3159" style="stop-color:#E3D3F1"/>
	<stop  offset="0.5234" style="stop-color:#C29FE0"/>
	<stop  offset="0.7721" style="stop-color:#9658CA"/>
	<stop  offset="0.9387" style="stop-color:#7525B9"/>
</radialGradient>
<circle class="st8" cx="52" cy="118.7" r="6.8"/>
<linearGradient id="SVGID_9_" gradientUnits="userSpaceOnUse" x1="44.3377" y1="65.9206" x2="229.3216" y2="65.9206">
	<stop  offset="6.589556e-03" style="stop-color:#E92BFF"/>
	<stop  offset="1" style="stop-color:#3FFCFF"/>
</linearGradient>
<path class="st9" d="M229.2,114.7L208.5,8.8l-13.7,2.7l4.5,23.1h-85.2l-5-25.8l-13.7,2.7l5.8,29.7l-54.9,67.7
	c-1.2,1.5-1.9,3.5-1.9,5.4l0,0c0,4.8,3.9,8.6,8.6,8.6h70c5.4,0,10.7-2,14.7-5.6l66.2-59.8l11.7,59.8c0.6,3.3,3.5,5.6,6.9,5.6h0
	C226.7,123,230,119,229.2,114.7z M68.9,104.5l34.2-35.1c1.2-1.3,3.4-0.6,3.8,1.1l6.3,32c0.3,1.4-0.8,2.6-2.2,2.6l-40.5,3.1
	C68.5,108.2,67.5,105.9,68.9,104.5z M126.7,98.6l-10-50.7c-0.3-1.4,0.8-2.6,2.2-2.6h58.8c1.9,0,2.9,2.3,1.6,3.7l-48.8,50.7
	C129.2,101,127,100.4,126.7,98.6z"/>
<radialGradient id="SVGID_10_" cx="227.9227" cy="91.3538" r="98.0059" gradientUnits="userSpaceOnUse">
	<stop  offset="0" style="stop-color:#E92BFF"/>
	<stop  offset="0.6541" style="stop-color:#4646FF;stop-opacity:0"/>
</radialGradient>
<path class="st10" d="M229.2,114.7L208.5,8.8l-13.7,2.7l4.5,23.1h-85.2l-5-25.8l-13.7,2.7l5.8,29.7l-54.9,67.7
	c-1.2,1.5-1.9,3.5-1.9,5.4l0,0c0,4.8,3.9,8.6,8.6,8.6h70c5.4,0,10.7-2,14.7-5.6l66.2-59.8l11.7,59.8c0.6,3.3,3.5,5.6,6.9,5.6h0
	C226.7,123,230,119,229.2,114.7z M68.9,104.5l34.2-35.1c1.2-1.3,3.4-0.6,3.8,1.1l6.3,32c0.3,1.4-0.8,2.6-2.2,2.6l-40.5,3.1
	C68.5,108.2,67.5,105.9,68.9,104.5z M126.7,98.6l-10-50.7c-0.3-1.4,0.8-2.6,2.2-2.6h58.8c1.9,0,2.9,2.3,1.6,3.7l-48.8,50.7
	C129.2,101,127,100.4,126.7,98.6z"/>
<linearGradient id="SVGID_11_" gradientUnits="userSpaceOnUse" x1="208.0139" y1="57.9689" x2="191.5407" y2="61.0901">
	<stop  offset="0" style="stop-color:#E92BFF"/>
	<stop  offset="0.6541" style="stop-color:#4646FF;stop-opacity:0"/>
</linearGradient>
<path class="st11" d="M229.2,114.7L208.5,8.8l-13.7,2.7l4.5,23.1h-85.2l-5-25.8l-13.7,2.7l5.8,29.7l-54.9,67.7
	c-1.2,1.5-1.9,3.5-1.9,5.4l0,0c0,4.8,3.9,8.6,8.6,8.6h70c5.4,0,10.7-2,14.7-5.6l66.2-59.8l11.7,59.8c0.6,3.3,3.5,5.6,6.9,5.6h0
	C226.7,123,230,119,229.2,114.7z M68.9,104.5l34.2-35.1c1.2-1.3,3.4-0.6,3.8,1.1l6.3,32c0.3,1.4-0.8,2.6-2.2,2.6l-40.5,3.1
	C68.5,108.2,67.5,105.9,68.9,104.5z M126.7,98.6l-10-50.7c-0.3-1.4,0.8-2.6,2.2-2.6h58.8c1.9,0,2.9,2.3,1.6,3.7l-48.8,50.7
	C129.2,101,127,100.4,126.7,98.6z"/>
<linearGradient id="SVGID_12_" gradientUnits="userSpaceOnUse" x1="106.9481" y1="77.0009" x2="115.2714" y2="75.4403">
	<stop  offset="0" style="stop-color:#E92BFF"/>
	<stop  offset="0.6541" style="stop-color:#4646FF;stop-opacity:0"/>
</linearGradient>
<path class="st12" d="M229.2,114.7L208.5,8.8l-13.7,2.7l4.5,23.1h-85.2l-5-25.8l-13.7,2.7l5.8,29.7l-54.9,67.7
	c-1.2,1.5-1.9,3.5-1.9,5.4l0,0c0,4.8,3.9,8.6,8.6,8.6h70c5.4,0,10.7-2,14.7-5.6l66.2-59.8l11.7,59.8c0.6,3.3,3.5,5.6,6.9,5.6h0
	C226.7,123,230,119,229.2,114.7z M68.9,104.5l34.2-35.1c1.2-1.3,3.4-0.6,3.8,1.1l6.3,32c0.3,1.4-0.8,2.6-2.2,2.6l-40.5,3.1
	C68.5,108.2,67.5,105.9,68.9,104.5z M126.7,98.6l-10-50.7c-0.3-1.4,0.8-2.6,2.2-2.6h58.8c1.9,0,2.9,2.3,1.6,3.7l-48.8,50.7
	C129.2,101,127,100.4,126.7,98.6z"/>
<radialGradient id="SVGID_13_" cx="213.2381" cy="6.5077" r="36.1493" gradientUnits="userSpaceOnUse">
	<stop  offset="0" style="stop-color:#E92BFF"/>
	<stop  offset="1" style="stop-color:#4646FF;stop-opacity:0"/>
</radialGradient>
<path class="st13" d="M229.2,114.7L208.5,8.8l-13.7,2.7l4.5,23.1h-85.2l-5-25.8l-13.7,2.7l5.8,29.7l-54.9,67.7
	c-1.2,1.5-1.9,3.5-1.9,5.4l0,0c0,4.8,3.9,8.6,8.6,8.6h70c5.4,0,10.7-2,14.7-5.6l66.2-59.8l11.7,59.8c0.6,3.3,3.5,5.6,6.9,5.6h0
	C226.7,123,230,119,229.2,114.7z M68.9,104.5l34.2-35.1c1.2-1.3,3.4-0.6,3.8,1.1l6.3,32c0.3,1.4-0.8,2.6-2.2,2.6l-40.5,3.1
	C68.5,108.2,67.5,105.9,68.9,104.5z M126.7,98.6l-10-50.7c-0.3-1.4,0.8-2.6,2.2-2.6h58.8c1.9,0,2.9,2.3,1.6,3.7l-48.8,50.7
	C129.2,101,127,100.4,126.7,98.6z"/>
<linearGradient id="SVGID_14_" gradientUnits="userSpaceOnUse" x1="78.5131" y1="11.5816" x2="134.2475" y2="11.5816">
	<stop  offset="0.2087" style="stop-color:#00FFC4"/>
	<stop  offset="0.999" style="stop-color:#7525B9"/>
</linearGradient>
<path class="st14" d="M78.7,17.1l54.8,6.1c0,0,2.9-6.7-2.5-10.3c-5.4-3.7-19.8-6.2-29.6-10.7S76.8-1,78.7,17.1z"/>
<linearGradient id="SVGID_15_" gradientUnits="userSpaceOnUse" x1="136.3017" y1="10.5869" x2="119.6551" y2="11.2806">
	<stop  offset="1.871892e-03" style="stop-color:#00FFC4"/>
	<stop  offset="8.776891e-02" style="stop-color:#0EE6C3;stop-opacity:0.9139"/>
	<stop  offset="0.3351" style="stop-color:#32A2BF;stop-opacity:0.6658"/>
	<stop  offset="0.5588" style="stop-color:#4F6CBD;stop-opacity:0.4415"/>
	<stop  offset="0.7509" style="stop-color:#6445BB;stop-opacity:0.2488"/>
	<stop  offset="0.904" style="stop-color:#702EB9;stop-opacity:9.527326e-02"/>
	<stop  offset="0.999" style="stop-color:#7525B9;stop-opacity:0"/>
</linearGradient>
<path class="st15" d="M78.7,17.1l54.8,6.1c0,0,2.9-6.7-2.5-10.3c-5.4-3.7-19.8-6.2-29.6-10.7S76.8-1,78.7,17.1z"/>
<linearGradient id="SVGID_16_" gradientUnits="userSpaceOnUse" x1="106.5627" y1="-7.0771" x2="106.3315" y2="22.9793">
	<stop  offset="1.871891e-03" style="stop-color:#FFF706"/>
	<stop  offset="7.819942e-02" style="stop-color:#FBED0F;stop-opacity:0.901"/>
	<stop  offset="0.2094" style="stop-color:#F0D126;stop-opacity:0.7308"/>
	<stop  offset="0.3795" style="stop-color:#DFA44D;stop-opacity:0.5099"/>
	<stop  offset="0.5798" style="stop-color:#C76781;stop-opacity:0.2501"/>
	<stop  offset="0.7725" style="stop-color:#AD25B9;stop-opacity:0"/>
</linearGradient>
<path class="st16" d="M78.7,17.1l54.8,6.1c0,0,2.9-6.7-2.5-10.3c-5.4-3.7-19.8-6.2-29.6-10.7S76.8-1,78.7,17.1z"/>
<path class="st2" d="M237.9,24.1c-1.7,0-3.3-0.9-4.3-2.4l-5.6-9.5c-0.3-0.6-1-0.9-1.7-0.9h-37.2c-2.6,0-4.9-2-5.1-4.6
	c-0.2-2.9,2.1-5.3,4.9-5.3h42.4c1,0,2,0.6,2.5,1.5l8.1,13.8c1.4,2.3,0.6,5.4-1.7,6.8C239.6,23.9,238.7,24.1,237.9,24.1z"/>
</svg>
