<?xml version="1.0" encoding="utf-8"?>
<!-- Generator: Adobe Illustrator 25.0.1, SVG Export Plug-In . SVG Version: 6.00 Build 0)  -->
<svg version="1.1" id="Слой_1" xmlns="http://www.w3.org/2000/svg" xmlns:xlink="http://www.w3.org/1999/xlink" x="0px" y="0px"
	 viewBox="0 0 599 367.1" style="enable-background:new 0 0 599 367.1;" xml:space="preserve">
<style type="text/css">
	.st0{fill:url(#SVGID_1_);}
	.st1{fill:none;stroke:#FFFFFF;stroke-width:5.9727;stroke-linecap:round;stroke-miterlimit:10;}
	.st2{fill:url(#SVGID_2_);}
	.st3{fill:url(#SVGID_3_);}
	.st4{fill:url(#SVGID_4_);}
	.st5{fill:url(#SVGID_5_);}
	.st6{clip-path:url(#SVGID_7_);fill:url(#SVGID_8_);}
	.st7{clip-path:url(#SVGID_7_);fill:url(#SVGID_9_);}
	.st8{clip-path:url(#SVGID_7_);fill:url(#SVGID_10_);}
	.st9{fill:url(#SVGID_11_);}
	.st10{fill:url(#SVGID_12_);}
	.st11{fill:none;stroke:#FFFFFF;stroke-width:2.9863;stroke-linecap:round;stroke-miterlimit:10;}
	.st12{fill:#FFFFFF;}
	.st13{fill:url(#SVGID_13_);}
	.st14{fill:url(#SVGID_14_);}
	.st15{fill:url(#SVGID_15_);}
	.st16{fill:url(#SVGID_16_);}
	.st17{fill:url(#SVGID_17_);}
	.st18{fill:url(#SVGID_18_);}
	.st19{fill:url(#SVGID_19_);}
	.st20{fill:url(#SVGID_20_);}
	.st21{fill:none;stroke:#FFFFFF;stroke-width:0.6505;stroke-linecap:round;stroke-miterlimit:10;}
	.st22{fill:url(#SVGID_21_);}
	.st23{fill:url(#SVGID_22_);}
</style>
<g>
	<g>
		<linearGradient id="SVGID_1_" gradientUnits="userSpaceOnUse" x1="20.0485" y1="341.2655" x2="170.685" y2="341.2655">
			<stop  offset="1.871892e-03" style="stop-color:#00FFC4"/>
			<stop  offset="8.776891e-02" style="stop-color:#0EE6C3;stop-opacity:0.9139"/>
			<stop  offset="0.3351" style="stop-color:#32A2BF;stop-opacity:0.6658"/>
			<stop  offset="0.5588" style="stop-color:#4F6CBD;stop-opacity:0.4415"/>
			<stop  offset="0.7509" style="stop-color:#6445BB;stop-opacity:0.2488"/>
			<stop  offset="0.904" style="stop-color:#702EB9;stop-opacity:9.527326e-02"/>
			<stop  offset="0.999" style="stop-color:#7525B9;stop-opacity:0"/>
		</linearGradient>
		<ellipse class="st0" cx="95.4" cy="341.3" rx="75.3" ry="2.2"/>
		<g>
			<path class="st1" d="M80.9,278.2c0,0,7.9-6.8,16.4-6c8.2,0.8,9.6,11,6.9,25.1"/>
			<linearGradient id="SVGID_2_" gradientUnits="userSpaceOnUse" x1="57.7452" y1="253.8545" x2="83.8583" y2="295.8021">
				<stop  offset="0.2087" style="stop-color:#00FFC4"/>
				<stop  offset="0.999" style="stop-color:#7525B9"/>
			</linearGradient>
			<path class="st2" d="M77.5,310.3c28.8,9.5,55.2,6.3,72.3-1.7c-12-9.5-45.3-23.8-58.4-31.8c-4.4-2.7-8.8-5.3-13-7.3
				c-6.3-3-18.4-1.8-27.3-0.2c-6.4,1.1-11.5,6-12.9,12.3c-1.6,7.4-3.8,17.3-5.7,24.9C39.8,304.3,57.3,303.7,77.5,310.3z"/>
			<radialGradient id="SVGID_3_" cx="34.4061" cy="334.4091" r="42.5896" gradientUnits="userSpaceOnUse">
				<stop  offset="7.423373e-02" style="stop-color:#FFFFFF"/>
				<stop  offset="0.1602" style="stop-color:#F7F3FB"/>
				<stop  offset="0.3159" style="stop-color:#E3D3F1"/>
				<stop  offset="0.5234" style="stop-color:#C29FE0"/>
				<stop  offset="0.7721" style="stop-color:#9658CA"/>
				<stop  offset="0.9387" style="stop-color:#7525B9"/>
			</radialGradient>
			<path class="st3" d="M46.3,339.8c0.3-0.1,0.6-0.3,0.8-0.4c0.2-0.1,0.3-0.2,0.5-0.3c0.3-0.2,0.7-0.4,1-0.6
				c0.6-0.4,1.3-0.9,1.9-1.3c0.5-0.3,0.9-0.6,1.4-0.9c1.6-1,3.5-1.7,6.2-1.7c0.9,0,1.7,0.1,2.4,0.2c1,0.1,1.9,0.4,2.7,0.7
				c1.1,0.4,2.1,0.9,3.1,1.5c-13.5-14.3-30.1-17.5-37.3-18.2c-0.1,0.6-0.2,1.2-0.3,1.9c-0.3,2.6,0,6.8,1.3,10.8
				c1.5,4.5,4.1,8.5,8.4,9.2c2.9,0.5,5.1,0.3,6.8-0.3C45.7,340.1,46,340,46.3,339.8z"/>
			<radialGradient id="SVGID_4_" cx="152.7357" cy="338.0342" r="28.4856" gradientUnits="userSpaceOnUse">
				<stop  offset="0" style="stop-color:#FFFFFF"/>
				<stop  offset="0.1203" style="stop-color:#FCFAFE"/>
				<stop  offset="0.2553" style="stop-color:#F4EDF9"/>
				<stop  offset="0.3975" style="stop-color:#E5D6F2"/>
				<stop  offset="0.5446" style="stop-color:#D1B7E8"/>
				<stop  offset="0.6956" style="stop-color:#B88EDB"/>
				<stop  offset="0.8479" style="stop-color:#995ECB"/>
				<stop  offset="1" style="stop-color:#7525B9"/>
			</radialGradient>
			<path class="st4" d="M143.6,336.4c0.8-0.1,1.6-0.3,2.4-0.8c0.3-0.2,0.6-0.4,0.9-0.6c0.4-0.3,0.7-0.6,1.1-0.9
				c0.3-0.3,0.6-0.5,0.8-0.8c0.8-0.9,1.6-2,2.3-3.1c0.2-0.3,0.4-0.6,0.5-0.9c0.3-0.6,0.6-1.1,0.8-1.7c0.1-0.3,0.2-0.5,0.3-0.8
				c0.8-1.9,1.4-4,1.7-6c0-0.1,0-0.2,0-0.3c0.1-0.6,0.1-1.1,0.2-1.7c0,0,0-0.1,0-0.1c0.1-1.1,0-2.1-0.2-3.1
				c-2.8,5.7-9.7,15.8-25.4,19.9l0,0c1.6-0.3,3-0.3,4.3-0.1c0.5,0.1,1.1,0.1,1.6,0.2c0.8,0.1,1.6,0.3,2.4,0.5
				c1.1,0.2,2.4,0.4,3.8,0.4C142.1,336.4,142.8,336.4,143.6,336.4z"/>
			<linearGradient id="SVGID_5_" gradientUnits="userSpaceOnUse" x1="150.913" y1="287.4985" x2="93.8253" y2="291.6655">
				<stop  offset="1.871892e-03" style="stop-color:#00FFC4"/>
				<stop  offset="8.776891e-02" style="stop-color:#0EE6C3;stop-opacity:0.9139"/>
				<stop  offset="0.3351" style="stop-color:#32A2BF;stop-opacity:0.6658"/>
				<stop  offset="0.5588" style="stop-color:#4F6CBD;stop-opacity:0.4415"/>
				<stop  offset="0.7509" style="stop-color:#6445BB;stop-opacity:0.2488"/>
				<stop  offset="0.904" style="stop-color:#702EB9;stop-opacity:9.527326e-02"/>
				<stop  offset="0.999" style="stop-color:#7525B9;stop-opacity:0"/>
			</linearGradient>
			<path class="st5" d="M77.5,310.3c28.8,9.5,55.2,6.3,72.3-1.7c-12-9.5-45.3-23.8-58.4-31.8c-4.4-2.7-8.8-5.3-13-7.3
				c-6.3-3-18.4-1.8-27.3-0.2c-6.4,1.1-11.5,6-12.9,12.3c-1.6,7.4-3.8,17.3-5.7,24.9C39.8,304.3,57.3,303.7,77.5,310.3z"/>
			<g>
				<defs>
					<path id="SVGID_6_" d="M92.7,277.4c7.5,4.6,21.5,11.2,34.4,17.8c14.1,7.2-0.3,30.4-6.7,30.8c-6.5,0.4-30.9-12.6-39.2-12.8
						C72.7,313,83.1,271.5,92.7,277.4z"/>
				</defs>
				<clipPath id="SVGID_7_">
					<use xlink:href="#SVGID_6_"  style="overflow:visible;"/>
				</clipPath>
				
					<linearGradient id="SVGID_8_" gradientUnits="userSpaceOnUse" x1="95.5855" y1="279.5727" x2="80.1128" y2="310.9048" gradientTransform="matrix(0.7569 -9.762002e-02 -9.762002e-02 0.9608 54.0444 21.7046)">
					<stop  offset="1.871892e-03" style="stop-color:#E6AE22"/>
					<stop  offset="0.1383" style="stop-color:#E5AB26"/>
					<stop  offset="0.2633" style="stop-color:#E0A131"/>
					<stop  offset="0.3838" style="stop-color:#D99043"/>
					<stop  offset="0.5015" style="stop-color:#D0785E"/>
					<stop  offset="0.6173" style="stop-color:#C3597F"/>
					<stop  offset="0.73" style="stop-color:#B334A8"/>
					<stop  offset="0.7715" style="stop-color:#AD25B9"/>
				</linearGradient>
				<polygon class="st6" points="87.8,335.1 76.9,328.7 96.3,257.1 107.1,263.6 				"/>
				
					<linearGradient id="SVGID_9_" gradientUnits="userSpaceOnUse" x1="108.0925" y1="292.9774" x2="91.3667" y2="329.7235" gradientTransform="matrix(0.7569 -9.762002e-02 -9.762002e-02 0.9608 54.0444 21.7046)">
					<stop  offset="1.871892e-03" style="stop-color:#E6AE22"/>
					<stop  offset="0.1009" style="stop-color:#E4AA26"/>
					<stop  offset="0.2026" style="stop-color:#E09F32"/>
					<stop  offset="0.3056" style="stop-color:#D88C47"/>
					<stop  offset="0.4094" style="stop-color:#CD7264"/>
					<stop  offset="0.5139" style="stop-color:#BF5189"/>
					<stop  offset="0.6177" style="stop-color:#AE28B6"/>
					<stop  offset="0.6245" style="stop-color:#AD25B9"/>
				</linearGradient>
				<polygon class="st7" points="98.6,341.6 87.8,335.1 107.1,263.6 118,270.1 				"/>
				
					<linearGradient id="SVGID_10_" gradientUnits="userSpaceOnUse" x1="125.313" y1="293.4273" x2="117.053" y2="316.6447" gradientTransform="matrix(0.7569 -9.762002e-02 -9.762002e-02 0.9608 54.0444 21.7046)">
					<stop  offset="1.871892e-03" style="stop-color:#E6AE22"/>
					<stop  offset="0.1846" style="stop-color:#E5AB26"/>
					<stop  offset="0.3465" style="stop-color:#E1A130"/>
					<stop  offset="0.5006" style="stop-color:#DA9142"/>
					<stop  offset="0.6498" style="stop-color:#D0795C"/>
					<stop  offset="0.7956" style="stop-color:#C45C7D"/>
					<stop  offset="0.9368" style="stop-color:#B537A5"/>
					<stop  offset="1" style="stop-color:#AD25B9"/>
				</linearGradient>
				<polygon class="st8" points="109.5,348.1 98.6,341.6 118,270.1 128.9,276.5 				"/>
			</g>
			<linearGradient id="SVGID_11_" gradientUnits="userSpaceOnUse" x1="29.0765" y1="323.2271" x2="154.6094" y2="323.2271">
				<stop  offset="6.589556e-03" style="stop-color:#E92BFF"/>
				<stop  offset="1" style="stop-color:#4646FF"/>
			</linearGradient>
			<path class="st9" d="M129.2,335.4c15.7-4.1,22.6-14.2,25.4-19.9c-0.1-0.7-0.3-1.4-0.5-2.1c-0.5-1.4-2-3-4.3-4.8
				c-17.1,8-43.5,11.2-72.3,1.7c-20.2-6.6-37.7-6-45-3.9c-1,4-1.9,7.4-2.6,9.3c-0.3,0.9-0.6,1.9-0.8,3c7.2,0.7,23.8,3.9,37.3,18.2
				c0.6,0.4,1.1,0.7,1.7,1.1c2.5,1.7,4.9,3.4,9.1,3.4c1.3,0,2.5-0.2,3.5-0.5c0.4-0.1,0.8-0.3,1.2-0.4c1-0.4,1.9-0.9,2.7-1.4
				c0.2-0.1,0.3-0.2,0.5-0.3c0.3-0.2,0.7-0.5,1-0.7c2.8-2,5.5-4,10-3.9c5.5,0.1,8,3,11.5,4.9c0.2,0.1,0.3,0.2,0.5,0.3
				c1.2,0.6,2.6,1.1,4.2,1.3c0.7,0.1,1.5,0.1,2.3,0.1c1.6,0,3-0.2,4.2-0.5c0.8-0.2,1.5-0.4,2.2-0.7c0.3-0.1,0.6-0.3,0.9-0.4
				c0.9-0.4,1.7-0.9,2.4-1.4c0.2-0.2,0.5-0.3,0.7-0.5C126.4,336.5,127.6,335.7,129.2,335.4C129.2,335.4,129.2,335.4,129.2,335.4
				L129.2,335.4z"/>
			<linearGradient id="SVGID_12_" gradientUnits="userSpaceOnUse" x1="91.6448" y1="342.4822" x2="91.8532" y2="315.8135">
				<stop  offset="6.589556e-03" style="stop-color:#E92BFF"/>
				<stop  offset="1" style="stop-color:#4646FF;stop-opacity:0"/>
			</linearGradient>
			<path class="st10" d="M129.2,335.4c15.7-4.1,22.6-14.2,25.4-19.9c-0.1-0.7-0.3-1.4-0.5-2.1c-0.5-1.4-2-3-4.3-4.8
				c-17.1,8-43.5,11.2-72.3,1.7c-20.2-6.6-37.7-6-45-3.9c-1,4-1.9,7.4-2.6,9.3c-0.3,0.9-0.6,1.9-0.8,3c7.2,0.7,23.8,3.9,37.3,18.2
				c0.6,0.4,1.1,0.7,1.7,1.1c2.5,1.7,4.9,3.4,9.1,3.4c1.3,0,2.5-0.2,3.5-0.5c0.4-0.1,0.8-0.3,1.2-0.4c1-0.4,1.9-0.9,2.7-1.4
				c0.2-0.1,0.3-0.2,0.5-0.3c0.3-0.2,0.7-0.5,1-0.7c2.8-2,5.5-4,10-3.9c5.5,0.1,8,3,11.5,4.9c0.2,0.1,0.3,0.2,0.5,0.3
				c1.2,0.6,2.6,1.1,4.2,1.3c0.7,0.1,1.5,0.1,2.3,0.1c1.6,0,3-0.2,4.2-0.5c0.8-0.2,1.5-0.4,2.2-0.7c0.3-0.1,0.6-0.3,0.9-0.4
				c0.9-0.4,1.7-0.9,2.4-1.4c0.2-0.2,0.5-0.3,0.7-0.5C126.4,336.5,127.6,335.7,129.2,335.4C129.2,335.4,129.2,335.4,129.2,335.4
				L129.2,335.4z"/>
			<g>
				<path class="st11" d="M142.6,318c-1.8,0.8-4.1,1.7-6.1,2.1"/>
				<circle class="st12" cx="148.6" cy="314.8" r="1.6"/>
				<path class="st11" d="M37.2,312.4c0,0,7.1-1.1,13.1,2.3"/>
			</g>
			<path class="st1" d="M74.8,275.6c2.3-3.2,6.7-8,12.6-8c8.8,0,14.6,13.2,7.4,30.8"/>
		</g>
		<g>
			<linearGradient id="SVGID_13_" gradientUnits="userSpaceOnUse" x1="231.9603" y1="346.402" x2="382.5968" y2="346.402">
				<stop  offset="1.871892e-03" style="stop-color:#00FFC4"/>
				<stop  offset="8.776891e-02" style="stop-color:#0EE6C3;stop-opacity:0.9139"/>
				<stop  offset="0.3351" style="stop-color:#32A2BF;stop-opacity:0.6658"/>
				<stop  offset="0.5588" style="stop-color:#4F6CBD;stop-opacity:0.4415"/>
				<stop  offset="0.7509" style="stop-color:#6445BB;stop-opacity:0.2488"/>
				<stop  offset="0.904" style="stop-color:#702EB9;stop-opacity:9.527326e-02"/>
				<stop  offset="0.999" style="stop-color:#7525B9;stop-opacity:0"/>
			</linearGradient>
			<ellipse class="st13" cx="307.3" cy="346.4" rx="75.3" ry="2.2"/>
			<linearGradient id="SVGID_14_" gradientUnits="userSpaceOnUse" x1="250.9579" y1="327.8649" x2="340.1313" y2="272.0273">
				<stop  offset="6.589556e-03" style="stop-color:#E92BFF"/>
				<stop  offset="1" style="stop-color:#3FFCFF"/>
			</linearGradient>
			<path class="st14" d="M300,236.2c-33.2,0-60.1,27.8-60.1,62c0,16,5.9,30.7,15.6,41.7c3.7,4.2,8.9,6.6,14.5,6.6h60
				c5.6,0,10.8-2.4,14.5-6.6c9.7-11,15.6-25.6,15.6-41.7C360.1,263.9,333.2,236.2,300,236.2z"/>
			
				<radialGradient id="SVGID_15_" cx="436.1339" cy="301.7717" r="17.5764" gradientTransform="matrix(0.9311 0 0 1 -79.7994 0)" gradientUnits="userSpaceOnUse">
				<stop  offset="7.423374e-02" style="stop-color:#3FFCFF"/>
				<stop  offset="0.1981" style="stop-color:#48F0FF"/>
				<stop  offset="0.4222" style="stop-color:#60D0FF"/>
				<stop  offset="0.7185" style="stop-color:#879DFF"/>
				<stop  offset="1" style="stop-color:#B166FF"/>
			</radialGradient>
			<ellipse class="st15" cx="330.9" cy="301.4" rx="12" ry="12.8"/>
			<linearGradient id="SVGID_16_" gradientUnits="userSpaceOnUse" x1="323.7492" y1="301.4272" x2="336.5792" y2="301.4272">
				<stop  offset="6.589556e-03" style="stop-color:#E92BFF"/>
				<stop  offset="1" style="stop-color:#4646FF;stop-opacity:0"/>
			</linearGradient>
			<path class="st16" d="M325.5,300.5h-1.8V298c1.8,0,2.2-0.7,2.2-2h2.1v10.5h-2.6V300.5z M336.6,302.7c0,2.4-1.4,4.1-3.6,4.1
				c-2.2,0-3.6-1.7-3.6-4.1c0-0.9,0.2-1.7,0.5-2.4l2.4-4.3h2.9l-1.5,2.6C335.5,299,336.6,300.6,336.6,302.7z M334.2,302.7
				c0-0.9-0.4-1.6-1.1-1.6c-0.7,0-1.1,0.7-1.1,1.6c0,0.9,0.4,1.6,1.1,1.6C333.7,304.3,334.2,303.7,334.2,302.7z"/>
			<radialGradient id="SVGID_17_" cx="299.6088" cy="348.0688" r="73.8889" gradientUnits="userSpaceOnUse">
				<stop  offset="0" style="stop-color:#E92BFF"/>
				<stop  offset="1" style="stop-color:#4646FF;stop-opacity:0"/>
			</radialGradient>
			<path class="st17" d="M300,236.2c-33.2,0-60.1,27.8-60.1,62c0,16,5.9,30.7,15.6,41.7c3.7,4.2,8.9,6.6,14.5,6.6h60
				c5.6,0,10.8-2.4,14.5-6.6c9.7-11,15.6-25.6,15.6-41.7C360.1,263.9,333.2,236.2,300,236.2z"/>
			<circle class="st12" cx="325.7" cy="262.9" r="4"/>
			<circle class="st12" cx="333.8" cy="265.6" r="0.9"/>
			<g>
				<linearGradient id="SVGID_18_" gradientUnits="userSpaceOnUse" x1="256.095" y1="205.9792" x2="329.9688" y2="258.2003">
					<stop  offset="1.871892e-03" style="stop-color:#FFF706"/>
					<stop  offset="0.1593" style="stop-color:#FEF309"/>
					<stop  offset="0.2989" style="stop-color:#F9E912"/>
					<stop  offset="0.4317" style="stop-color:#F2D722"/>
					<stop  offset="0.5604" style="stop-color:#E8BD37"/>
					<stop  offset="0.6861" style="stop-color:#DB9C54"/>
					<stop  offset="0.8095" style="stop-color:#CC7476"/>
					<stop  offset="0.9289" style="stop-color:#B9459E"/>
					<stop  offset="1" style="stop-color:#AD25B9"/>
				</linearGradient>
				<path class="st18" d="M268.5,235c-0.2-10.5-0.4-17,6.8-19.2c7.2-2.3,43.1-2.3,50.3,0c7.2,2.3,7,8.7,6.8,19.2
					c-0.1,3.9-1.3,6.9-2.7,9.2c7.6,4.4,14.2,10.5,19.2,17.8c2.2-20.1,7.3-50.8-11.1-59.8c-19.9-9.7-37.3-8.6-37.3-8.6
					s-17.5-1.1-37.3,8.6c-18.5,9-13.2,39.9-11.1,60.1c0.3,3.2,3,5.7,6.2,5.9c2.5,0.1,5.8-0.3,9.5-2.3c7.7-4.1,9.1-8.3,9.3-12.3
					c0.1-2.1-0.8-4.1-2.4-5.4C272.2,246,268.6,241.8,268.5,235z"/>
				<linearGradient id="SVGID_19_" gradientUnits="userSpaceOnUse" x1="280.7183" y1="195.9527" x2="316.0535" y2="273.308">
					<stop  offset="1.871892e-03" style="stop-color:#FFF706"/>
					<stop  offset="7.819942e-02" style="stop-color:#FBED0F;stop-opacity:0.901"/>
					<stop  offset="0.2094" style="stop-color:#F0D126;stop-opacity:0.7308"/>
					<stop  offset="0.3795" style="stop-color:#DFA44D;stop-opacity:0.5099"/>
					<stop  offset="0.5798" style="stop-color:#C76781;stop-opacity:0.2501"/>
					<stop  offset="0.7725" style="stop-color:#AD25B9;stop-opacity:0"/>
				</linearGradient>
				<path class="st19" d="M268.5,235c-0.2-10.5-0.4-17,6.8-19.2c7.2-2.3,43.1-2.3,50.3,0c7.2,2.3,7,8.7,6.8,19.2
					c-0.1,3.9-1.3,6.9-2.7,9.2c7.6,4.4,14.2,10.5,19.2,17.8c2.2-20.1,7.3-50.8-11.1-59.8c-19.9-9.7-37.3-8.6-37.3-8.6
					s-17.5-1.1-37.3,8.6c-18.4,9-13.3,39.6-11.1,59.8c0.4,3.4,3.2,6.1,6.6,6.2c2.5,0.1,5.6-0.4,9.1-2.3c7.6-4,9-8.1,9.3-12.1
					c0.2-2.1-0.7-4.2-2.4-5.6C272.2,246,268.6,241.8,268.5,235z"/>
				<path class="st11" d="M271.9,202.7c0,0,10.8-5,28.5-5.3"/>
				<path class="st11" d="M266.1,205.7c0,0-2.4,0.9-4,3.3"/>
			</g>
		</g>
	</g>
	<polygon class="st12" points="564,89.9 581.2,79.6 567,29.1 385.6,21.3 321.8,51.1 331,118.5 323.3,152.8 452.8,152.1 464.6,120.4 
		569.9,121.9 	"/>
	<g>
		<linearGradient id="SVGID_20_" gradientUnits="userSpaceOnUse" x1="433.1552" y1="131.4005" x2="451.3098" y2="131.4005">
			<stop  offset="1.871892e-03" style="stop-color:#FFF706"/>
			<stop  offset="7.819942e-02" style="stop-color:#FBED0F"/>
			<stop  offset="0.2094" style="stop-color:#F0D126"/>
			<stop  offset="0.3795" style="stop-color:#DFA44D"/>
			<stop  offset="0.5798" style="stop-color:#C76781"/>
			<stop  offset="0.7725" style="stop-color:#AD25B9"/>
		</linearGradient>
		<circle class="st20" cx="442.2" cy="131.4" r="9.1"/>
		<g>
			<g>
				<path class="st21" d="M443.7,128c0,0,1-1.4,3.5-1.4"/>
				<ellipse class="st12" cx="444.8" cy="129.1" rx="0.7" ry="1.1"/>
				<path class="st21" d="M441,128c0,0-1-1.4-3.5-1.4"/>
				<ellipse class="st12" cx="439.9" cy="129.1" rx="0.7" ry="1.1"/>
			</g>
			<g>
				<linearGradient id="SVGID_21_" gradientUnits="userSpaceOnUse" x1="449.7434" y1="133.8374" x2="431.7502" y2="133.6761">
					<stop  offset="6.589556e-03" style="stop-color:#E92BFF"/>
					<stop  offset="1" style="stop-color:#4646FF"/>
				</linearGradient>
				<rect x="434.9" y="131.4" class="st22" width="14.8" height="4.8"/>
				<g>
					<path class="st12" d="M436.2,134.2c0-0.7,0.5-1.1,1.2-1.1c0.7,0,1.1,0.4,1.1,1.1c0,0.4-0.2,0.7-0.5,0.7c-0.2,0-0.3-0.1-0.4-0.3
						c-0.1,0.1-0.2,0.2-0.4,0.2c-0.3,0-0.6-0.3-0.6-0.6c0-0.3,0.2-0.6,0.6-0.6c0.2,0,0.3,0.1,0.4,0.2v-0.2h0.2v0.8
						c0,0.2,0.1,0.3,0.2,0.3c0.1,0,0.3-0.1,0.3-0.5c0-0.7-0.4-1-0.9-1c-0.6,0-1,0.4-1,1c0,0.6,0.3,1,1,1c0.2,0,0.4,0,0.6-0.1
						l0.1,0.2c-0.2,0.1-0.4,0.2-0.6,0.2C436.6,135.4,436.2,134.9,436.2,134.2z M437.6,134.2c0-0.2-0.2-0.4-0.4-0.4
						c-0.2,0-0.4,0.2-0.4,0.4c0,0.2,0.1,0.4,0.4,0.4C437.5,134.6,437.6,134.4,437.6,134.2z"/>
					<path class="st12" d="M438.9,134.2h-0.3V134h0.3l0.1-0.4h-0.3v-0.2h0.3l0.1-0.6h0.2l-0.1,0.6h0.4l0.1-0.6h0.2l-0.1,0.6h0.2v0.2
						h-0.3l-0.1,0.4h0.2v0.2h-0.3l-0.1,0.6h-0.2l0.1-0.6h-0.4l-0.1,0.6h-0.2L438.9,134.2z M439.5,134l0.1-0.4h-0.4l-0.1,0.4H439.5z"
						/>
					<path class="st12" d="M441,134.9v0.2h-0.2v-0.2c-0.4,0-0.6-0.3-0.6-0.7h0.3c0,0.3,0.2,0.4,0.4,0.4c0.2,0,0.4-0.1,0.4-0.3
						c0-0.2-0.1-0.3-0.3-0.3l-0.3-0.1c-0.3-0.1-0.4-0.3-0.4-0.5c0-0.3,0.2-0.5,0.5-0.5v-0.3h0.2v0.3c0.3,0,0.5,0.3,0.5,0.6h-0.3
						c0-0.2-0.1-0.4-0.4-0.4c-0.2,0-0.3,0.1-0.3,0.3c0,0.2,0.1,0.3,0.3,0.3l0.3,0.1c0.2,0.1,0.4,0.2,0.4,0.5
						C441.5,134.6,441.3,134.8,441,134.9z"/>
					<path class="st12" d="M441.7,133.4c0-0.3,0.2-0.5,0.5-0.5s0.5,0.2,0.5,0.5c0,0.3-0.2,0.5-0.5,0.5S441.7,133.6,441.7,133.4z
						 M442.4,133.4c0-0.2-0.1-0.3-0.3-0.3c-0.2,0-0.3,0.1-0.3,0.3c0,0.2,0.1,0.3,0.3,0.3C442.3,133.7,442.4,133.5,442.4,133.4z
						 M442,134.8l1.3-1.9l0.2,0.1l-1.3,1.9L442,134.8z M442.7,134.4c0-0.3,0.2-0.5,0.5-0.5c0.3,0,0.5,0.2,0.5,0.5
						c0,0.3-0.2,0.5-0.5,0.5C442.9,134.8,442.7,134.6,442.7,134.4z M443.5,134.4c0-0.2-0.1-0.3-0.3-0.3s-0.3,0.1-0.3,0.3
						c0,0.2,0.1,0.3,0.3,0.3S443.5,134.5,443.5,134.4z"/>
					<path class="st12" d="M444.5,132.9h0.2l0.6,1.1h-0.3l-0.4-0.8l-0.4,0.8h-0.3L444.5,132.9z"/>
					<path class="st12" d="M447,134.2h-0.2c0,0.4-0.3,0.7-0.7,0.7c-0.4,0-0.7-0.2-0.7-0.6c0-0.3,0.2-0.4,0.4-0.5
						c-0.2-0.1-0.3-0.2-0.3-0.4c0-0.3,0.3-0.5,0.6-0.5c0.4,0,0.6,0.2,0.6,0.6h-0.3c0-0.2-0.1-0.4-0.4-0.4c-0.2,0-0.4,0.1-0.4,0.3
						c0,0.2,0.1,0.3,0.4,0.3h0.1v0.2h-0.1c-0.3,0-0.4,0.2-0.4,0.4c0,0.2,0.2,0.4,0.4,0.4c0.2,0,0.4-0.2,0.4-0.5h-0.2V134h0.6V134.2z
						"/>
					<path class="st12" d="M447.2,133.7l0.3-0.4l-0.4-0.1l0.1-0.2l0.4,0.2l0-0.4h0.2l0,0.4l0.4-0.2l0.1,0.2l-0.4,0.1l0.3,0.4
						l-0.2,0.1l-0.2-0.4l-0.2,0.4L447.2,133.7z"/>
				</g>
			</g>
		</g>
	</g>
	<polyline class="st12" points="408.6,152.6 363,210.9 368.2,148.1 	"/>
	<linearGradient id="SVGID_22_" gradientUnits="userSpaceOnUse" x1="556.6019" y1="138.0153" x2="337.0654" y2="57.564">
		<stop  offset="6.589556e-03" style="stop-color:#E92BFF"/>
		<stop  offset="1" style="stop-color:#4646FF"/>
	</linearGradient>
	<path class="st23" d="M350.4,61.8l-10.9-17.2h11.2l5.6,9.9l5.6-9.9h11.2l-10.9,17.2L373.1,79h-11.2l-5.6-9.9l-5.6,9.9h-11.2
		L350.4,61.8z M404.9,69.5c0,5.8-4.3,9.5-11.1,9.5h-17.2V44.6h16.8c6.7,0,11,3.4,11,8.9c0,4.4-2.6,7.3-6.6,8
		C401.9,62,404.9,64.9,404.9,69.5z M386.8,51.2v7.3h3.2c2.5,0,4.1-1.4,4.1-3.7c0-2.3-1.5-3.6-4.1-3.6H386.8z M394.5,68.1
		c0-2.2-1.6-3.7-4.1-3.7h-3.5v7.5h3.5C392.9,71.9,394.5,70.4,394.5,68.1z M428.2,75h-11.1l-1.1,4h-10.6l11.8-34.5h11.1L440,79h-10.6
		L428.2,75z M426.3,67.6l-3.6-13.4l-3.6,13.4H426.3z M445.5,53.4h-8.9v-8.8h28v8.8h-8.9V79h-10.3V53.4z M478.2,76.7V79H468V44.6
		h10.2v19.1l9.6-16.7v-2.4h10.2V79h-10.2V59.9L478.2,76.7z M510.2,53.4h-8.9v-8.8h28v8.8h-8.9V79h-10.3V53.4z M349.5,109.7v-8.4H346
		v8.4h-4.8V97.4h13.2v12.2H349.5z M356.1,103.5c0-3.9,2.8-6.4,7.1-6.4c4.4,0,7.1,2.6,7.1,6.4c0,3.9-2.8,6.5-7.1,6.5
		C358.9,110,356.1,107.4,356.1,103.5z M365.5,103.5c0-1.5-0.9-2.5-2.3-2.5c-1.4,0-2.3,1-2.3,2.5c0,1.5,0.9,2.5,2.3,2.5
		C364.6,106,365.5,105,365.5,103.5z M387.4,105.6v7.1h-4.7v-3h-7.1v3H371v-7.1h1.3c1-0.2,1.4-1.2,1.4-2.3v-5.9h12.4v8.1H387.4z
		 M378.3,103.2c0,1.2-0.3,2.1-0.9,2.8h3.8v-5.3h-2.9V103.2z M397.8,109.7v-8.4h-3.5v8.4h-4.8V97.4h13.2v12.2H397.8z M410.2,108.8
		v0.8h-4.8V97.4h4.8v6.7l3.5-5.7v-1h4.8v12.2h-4.8v-6.5L410.2,108.8z M435.6,103.6c0,3.8-2.3,6.4-5.5,6.4c-1.9,0-3.3-1.1-3.8-2.2
		v6.5h-4.8V97.4h4.8v1.8c0.5-1.2,2-2.2,3.9-2.2C433.3,97.1,435.6,99.6,435.6,103.6z M430.6,103.6c0-1.5-0.9-2.6-2.3-2.6
		s-2.3,1.1-2.3,2.6c0,1.5,0.9,2.6,2.3,2.6C429.7,106.2,430.6,105.1,430.6,103.6z M436.8,103.6c0-3.8,2.2-6.5,5.6-6.5
		c1.9,0,3.2,0.9,3.8,2.2v-1.8h4.8v12.2h-4.8v-1.8c-0.6,1.3-2,2.2-3.8,2.2C439,110,436.8,107.3,436.8,103.6z M446.4,103.6
		c0-1.5-0.9-2.6-2.3-2.6c-1.4,0-2.3,1.1-2.3,2.6c0,1.5,0.9,2.6,2.3,2.6C445.6,106.1,446.4,105,446.4,103.6z M464.5,101.5h-3.3v8.2
		h-4.8v-8.2h-3.3v-4h11.4V101.5z M471.4,97.4v3.7h2.3c4,0,5.3,2.1,5.3,4.2c0,1.8-1.4,4.3-5.3,4.3h-7.1V97.4H471.4z M471.4,106.9h1.3
		c0.9,0,1.5-0.6,1.5-1.4c0-0.8-0.5-1.4-1.5-1.4h-1.3V106.9z M486.6,97.4h7.2l2.4,7.3l2.4-7.3h7.1v12.2h-4.6v-8.6l-3,8.6h-3.8
		l-3.2-8.6v8.6h-4.6V97.4z M508.6,97.4h4.8v4.2h3.6v-4.2h4.8v12.2h-4.8v-4.3h-3.6v4.3h-4.8V97.4z M523.7,103.5
		c0-3.9,2.8-6.4,7.1-6.4c4.4,0,7.1,2.6,7.1,6.4c0,3.9-2.8,6.5-7.1,6.5C526.4,110,523.7,107.4,523.7,103.5z M533.1,103.5
		c0-1.5-0.9-2.5-2.3-2.5c-1.4,0-2.3,1-2.3,2.5c0,1.5,0.9,2.5,2.3,2.5C532.2,106,533.1,105,533.1,103.5z M559.5,103.5
		c0,3.9-2.8,6.5-7.1,6.5c-3.7,0-6.2-1.9-6.9-4.8h-0.9v4.5h-4.8V97.4h4.8v4.4h0.9c0.7-2.9,3.3-4.7,6.9-4.7
		C556.7,97.1,559.5,99.7,559.5,103.5z M554.6,103.5c0-1.5-0.9-2.5-2.3-2.5c-1.4,0-2.3,1-2.3,2.5c0,1.5,0.9,2.5,2.3,2.5
		C553.8,106,554.6,105,554.6,103.5z M356.5,135.1v7.1h-4.7v-3h-7.1v3h-4.7v-7.1h1.3c1-0.2,1.4-1.2,1.4-2.3V127h12.4v8.1H356.5z
		 M347.4,132.8c0,1.2-0.3,2.1-0.9,2.8h3.8v-5.3h-2.9V132.8z M366.9,127c3.2,0,4,2,4,3.2c0,1.7-1.4,2.7-3.3,2.8
		c2.3,0.1,3.5,1.1,3.5,3c0,1.2-0.9,3.3-4.6,3.3h-7.9V127H366.9z M365.9,130.7c0-0.7-0.5-1.2-1.4-1.2h-1.2v2.4h1.2
		C365.4,131.9,365.9,131.4,365.9,130.7z M363.3,136.6h1.2c0.9,0,1.4-0.5,1.4-1.2c0-0.7-0.5-1.3-1.4-1.3h-1.3V136.6z M386.1,134.3h-9
		c0.1,1.3,1,2,2.3,2c1,0,1.7-0.2,1.9-0.8h4.7c-0.4,2.6-3,4.2-6.6,4.2c-4.4,0-7.2-2.3-7.2-6.4c0-4.1,2.8-6.5,7.1-6.5
		c4.1,0,6.9,2.3,6.9,5.8C386.2,133.2,386.2,133.6,386.1,134.3z M381.4,131.6c0-1.3-0.8-2.1-2.1-2.1c-1.3,0-2.1,0.8-2.2,2.1H381.4z
		 M402.2,133.1c0,3.8-2.3,6.4-5.5,6.4c-1.9,0-3.3-1.1-3.8-2.2v6.5H388V127h4.8v1.8c0.5-1.2,2-2.2,3.9-2.2
		C399.9,126.6,402.2,129.2,402.2,133.1z M397.2,133.1c0-1.5-0.9-2.6-2.3-2.6s-2.3,1.1-2.3,2.6c0,1.5,0.9,2.6,2.3,2.6
		C396.2,135.7,397.2,134.6,397.2,133.1z M408.9,127v3.7h2.3c4,0,5.3,2.1,5.3,4.2c0,1.8-1.4,4.3-5.3,4.3h-7.1V127H408.9z
		 M408.9,136.4h1.3c0.9,0,1.5-0.6,1.5-1.4c0-0.8-0.5-1.4-1.5-1.4h-1.3V136.4z M418,136.5c0-1.6,1.3-3,3-3c1.7,0,3.1,1.4,3.1,3
		c0,1.6-1.3,3-3.1,3C419.3,139.5,418,138.1,418,136.5z M418.5,122h5.1v10.7h-5.1V122z"/>
</g>
</svg>
