<?xml version="1.0" encoding="utf-8"?>
<!-- Generator: Adobe Illustrator 25.0.1, SVG Export Plug-In . SVG Version: 6.00 Build 0)  -->
<svg version="1.1" id="Слой_1" xmlns="http://www.w3.org/2000/svg" xmlns:xlink="http://www.w3.org/1999/xlink" x="0px" y="0px"
	 viewBox="0 0 37.2 62.4" style="enable-background:new 0 0 37.2 62.4;" xml:space="preserve">
<style type="text/css">
	.st0{fill:#3bf0f4;}
	.st1{fill:#FFFFFF;}
</style>
<g>
	<path class="st0" d="M18.6,1.5L18.6,1.5c9.4,0,17.1,7.6,17.1,17.1v25.3c0,9.4-7.6,17.1-17.1,17.1l0,0c-9.4,0-17.1-7.6-17.1-17.1
		V18.6C1.5,9.1,9.1,1.5,18.6,1.5z"/>
	<path class="st1" d="M18.6,62.4C8.3,62.4,0,54.1,0,43.8V18.6C0,8.3,8.3,0,18.6,0s18.6,8.3,18.6,18.6v25.3
		C37.2,54.1,28.8,62.4,18.6,62.4z M18.6,3C10,3,3,10,3,18.6v25.3c0,8.6,7,15.6,15.6,15.6c8.6,0,15.6-7,15.6-15.6V18.6
		C34.2,10,27.2,3,18.6,3z"/>
</g>
<rect x="17.1" y="7.8" class="st1" width="3" height="18"/>
</svg>
