<?xml version="1.0" encoding="utf-8"?>
<!-- Generator: Adobe Illustrator 25.0.1, SVG Export Plug-In . SVG Version: 6.00 Build 0)  -->
<svg version="1.1" id="Слой_1" xmlns="http://www.w3.org/2000/svg" xmlns:xlink="http://www.w3.org/1999/xlink" x="0px" y="0px"
	 viewBox="0 0 277.2 92.4" style="enable-background:new 0 0 277.2 92.4;" xml:space="preserve">
<style type="text/css">
	.st0{fill:url(#SVGID_1_);}
	.st1{fill:url(#SVGID_2_);}
	.st2{fill:url(#SVGID_3_);}
	.st3{fill:url(#SVGID_4_);}
	.st4{fill:url(#SVGID_5_);}
	.st5{fill:url(#SVGID_6_);}
	.st6{fill:url(#SVGID_7_);}
	.st7{clip-path:url(#SVGID_9_);fill:#FFFFFF;}
	.st8{fill:#FFFFFF;}
	.st9{fill:url(#SVGID_10_);}
	.st10{fill:url(#SVGID_11_);}
</style>
<linearGradient id="SVGID_1_" gradientUnits="userSpaceOnUse" x1="14.2778" y1="89.1147" x2="265.0991" y2="89.1147">
	<stop  offset="1.871892e-03" style="stop-color:#00FFC4"/>
	<stop  offset="8.776891e-02" style="stop-color:#0EE6C3;stop-opacity:0.9139"/>
	<stop  offset="0.3351" style="stop-color:#32A2BF;stop-opacity:0.6658"/>
	<stop  offset="0.5588" style="stop-color:#4F6CBD;stop-opacity:0.4415"/>
	<stop  offset="0.7509" style="stop-color:#6445BB;stop-opacity:0.2488"/>
	<stop  offset="0.904" style="stop-color:#702EB9;stop-opacity:9.527326e-02"/>
	<stop  offset="0.999" style="stop-color:#7525B9;stop-opacity:0"/>
</linearGradient>
<ellipse class="st0" cx="139.7" cy="89.1" rx="125.4" ry="2.1"/>
<linearGradient id="SVGID_2_" gradientUnits="userSpaceOnUse" x1="0" y1="37.9391" x2="97.4087" y2="37.9391">
	<stop  offset="1.871892e-03" style="stop-color:#FFF706"/>
	<stop  offset="0.1593" style="stop-color:#FEF309"/>
	<stop  offset="0.2989" style="stop-color:#F9E912"/>
	<stop  offset="0.4317" style="stop-color:#F2D722"/>
	<stop  offset="0.5604" style="stop-color:#E8BD37"/>
	<stop  offset="0.6861" style="stop-color:#DB9C54"/>
	<stop  offset="0.8095" style="stop-color:#CC7476"/>
	<stop  offset="0.9289" style="stop-color:#B9459E"/>
	<stop  offset="1" style="stop-color:#AD25B9"/>
</linearGradient>
<path class="st1" d="M80.4,72.1c0,0-11.2-13.7-16.1-18.8c-6-6.1-18.1-4-27.3-1c-9.3,3-31.1,9.9-31.1,9.9L0,50.1L97.4,3.8L80.4,72.1z
	"/>
<linearGradient id="SVGID_3_" gradientUnits="userSpaceOnUse" x1="46.8169" y1="20.0626" x2="59.9142" y2="67.9497">
	<stop  offset="1.871892e-03" style="stop-color:#FFF706"/>
	<stop  offset="7.819942e-02" style="stop-color:#FBED0F;stop-opacity:0.901"/>
	<stop  offset="0.2094" style="stop-color:#F0D126;stop-opacity:0.7308"/>
	<stop  offset="0.3795" style="stop-color:#DFA44D;stop-opacity:0.5099"/>
	<stop  offset="0.5798" style="stop-color:#C76781;stop-opacity:0.2501"/>
	<stop  offset="0.7725" style="stop-color:#AD25B9;stop-opacity:0"/>
</linearGradient>
<path class="st2" d="M80.4,72.1c0,0-11.2-13.7-16.1-18.8c-6-6.1-18.1-4-27.3-1c-9.3,3-31.1,9.9-31.1,9.9L0,50.1L97.4,3.8L80.4,72.1z
	"/>
<linearGradient id="SVGID_4_" gradientUnits="userSpaceOnUse" x1="134.1052" y1="19.7779" x2="169.9707" y2="19.7779">
	<stop  offset="6.589556e-03" style="stop-color:#E92BFF"/>
	<stop  offset="1" style="stop-color:#3FFCFF"/>
</linearGradient>
<path class="st3" d="M165,23.5l-19.6,12.2l-11.3-18l19.6-12.2c5-3.1,11.6-1.6,14.7,3.4l0,0C171.5,13.8,170,20.4,165,23.5z"/>
<radialGradient id="SVGID_5_" cx="149.8596" cy="16.0074" r="27.0498" gradientUnits="userSpaceOnUse">
	<stop  offset="0" style="stop-color:#E92BFF"/>
	<stop  offset="0.6541" style="stop-color:#4646FF;stop-opacity:0"/>
</radialGradient>
<path class="st4" d="M165,23.5l-19.6,12.2l-11.3-18l19.6-12.2c5-3.1,11.6-1.6,14.7,3.4l0,0C171.5,13.8,170,20.4,165,23.5z"/>
<linearGradient id="SVGID_6_" gradientUnits="userSpaceOnUse" x1="109.7374" y1="-5.7931" x2="117.1047" y2="58.875">
	<stop  offset="6.589556e-03" style="stop-color:#E92BFF"/>
	<stop  offset="1" style="stop-color:#3FFCFF"/>
</linearGradient>
<circle class="st5" cx="115.5" cy="44.6" r="44.6"/>
<radialGradient id="SVGID_7_" cx="141.9961" cy="91.812" r="73.3625" gradientUnits="userSpaceOnUse">
	<stop  offset="0" style="stop-color:#E92BFF"/>
	<stop  offset="0.6541" style="stop-color:#4646FF;stop-opacity:0"/>
</radialGradient>
<circle class="st6" cx="115.5" cy="44.6" r="44.6"/>
<g>
	<defs>
		<path id="SVGID_8_" d="M163.6,24.3l-4.5,2.8c0,0,11,33.9,47,53.3c26.3,14.2,56.1,14.3,64.7,7.7c9.3-7.1,16.5-29.9-37.7-35
			c-21.3-2-43.4-15.2-64.6-42.1c-1.1-0.8-5.8-0.3-4.9,4.4c0,0.7,2.1,7.6,2.1,7.6S163.8,24.1,163.6,24.3z"/>
	</defs>
	<clipPath id="SVGID_9_">
		<use xlink:href="#SVGID_8_"  style="overflow:visible;"/>
	</clipPath>
	<path class="st7" d="M250.3,89.9c-16.9,0-40.8-7-63.8-26.4c-21.4-18-27.3-39.6-27.5-40.5c-0.4-1.6,0.5-3.2,2.1-3.6
		c1.6-0.4,3.2,0.5,3.6,2.1c0.1,0.2,5.7,20.7,25.6,37.5c29.6,25,62.3,29,74.5,22.2c2.9-1.6,4.2-3.6,3.9-6.1
		c-0.9-6.2-12.6-8-26.3-10.1c-15.2-2.3-34.2-5.3-49-15.5c-13.2-9.2-28.2-32.3-28.9-33.3c-0.9-1.4-0.5-3.2,0.9-4.1
		c1.4-0.9,3.2-0.5,4.1,0.9c0.1,0.2,15.1,23.2,27.3,31.7c13.7,9.5,31.9,12.3,46.6,14.6c16.6,2.6,29.8,4.6,31.2,15.1
		c0.7,4.9-1.8,9.2-6.9,12C263.6,88.5,257.6,89.9,250.3,89.9z"/>
</g>
<circle class="st8" cx="158" cy="7" r="2"/>
<circle class="st8" cx="161.9" cy="8" r="0.7"/>
<linearGradient id="SVGID_10_" gradientUnits="userSpaceOnUse" x1="127.6815" y1="55.7357" x2="104.0535" y2="34.1004">
	<stop  offset="0.2087" style="stop-color:#00FFC4"/>
	<stop  offset="0.999" style="stop-color:#7525B9"/>
</linearGradient>
<circle class="st9" cx="115.5" cy="44.6" r="13.7"/>
<radialGradient id="SVGID_11_" cx="122.5451" cy="58.7499" r="22.64" gradientUnits="userSpaceOnUse">
	<stop  offset="6.589556e-03" style="stop-color:#E92BFF"/>
	<stop  offset="0.982" style="stop-color:#4646FF;stop-opacity:0"/>
</radialGradient>
<circle class="st10" cx="115.5" cy="44.6" r="13.7"/>
<path class="st8" d="M100.2,13.1c-0.5,0-1-0.3-1.3-0.7c-0.4-0.7-0.1-1.6,0.6-2c9-5.1,19.7-4.1,20.2-4c0.8,0.1,1.4,0.8,1.3,1.6
	c-0.1,0.8-0.8,1.4-1.6,1.3c-0.1,0-10.2-1-18.4,3.6C100.7,13,100.4,13.1,100.2,13.1z"/>
<circle class="st8" cx="94" cy="15" r="1.6"/>
</svg>
